<?xml version="1.0" standalone="no"?>
<!DOCTYPE svg PUBLIC "-//W3C//DTD SVG 20010904//EN"
 "http://www.w3.org/TR/2001/REC-SVG-20010904/DTD/svg10.dtd">
<svg version="1.0" xmlns="http://www.w3.org/2000/svg"
 width="500.000000pt" height="500.000000pt" viewBox="0 0 500.000000 500.000000"
 preserveAspectRatio="xMidYMid meet">
<metadata>
Created by potrace 1.11, written by Peter Selinger 2001-2013
</metadata>
<g transform="translate(0.000000,500.000000) scale(0.100000,-0.100000)"
fill="#000000" stroke="none">
<path d="M980 4921 c-107 -111 -223 -200 -405 -310 -94 -57 -347 -180 -467
-226 -54 -21 -97 -39 -95 -41 1 -1 49 -21 107 -44 410 -163 739 -379 929 -610
l20 -25 1 85 0 86 -47 45 c-176 168 -421 324 -692 440 l-54 23 44 20 c58 27
267 130 299 148 87 48 255 163 325 222 128 110 125 106 128 187 1 42 -2 74 -8
75 -6 2 -44 -32 -85 -75z"/>
<path d="M2747 4453 c-1 -1 -402 -3 -890 -4 -570 -2 -891 -7 -895 -13 -3 -6
-6 -33 -6 -60 l1 -50 969 3 c533 2 1367 4 1854 5 l885 1 1 -90 c1 -49 5 -371
8 -715 4 -344 9 -746 11 -895 3 -237 13 -1113 18 -1538 l2 -148 60 3 60 3 -2
135 c-5 430 -16 1396 -18 1640 -3 288 -17 1481 -19 1643 l-1 87 -1018 -2
c-560 -2 -1019 -4 -1020 -5z"/>
<path d="M1760 4088 c-252 -19 -443 -122 -517 -277 -39 -82 -44 -205 -13 -295
33 -91 113 -172 223 -223 41 -19 159 -58 206 -68 9 -2 96 -19 194 -39 304 -60
403 -93 466 -154 46 -44 64 -90 64 -162 0 -197 -195 -312 -528 -312 -238 0
-377 48 -515 179 l-67 63 -67 -48 -66 -49 52 -52 c79 -79 229 -170 307 -186 9
-2 39 -9 66 -15 63 -15 86 -18 210 -25 55 -4 105 -7 110 -7 10 -1 151 11 210
17 34 4 47 7 131 29 34 9 63 16 65 16 2 0 3 -323 2 -717 -1 -420 1 -720 7
-723 5 -3 46 -5 92 -5 l83 1 3 310 2 310 333 1 c182 0 343 3 357 6 14 3 43 8
65 12 109 20 242 114 277 196 8 19 21 48 28 64 19 45 21 238 3 299 -42 142
-145 232 -310 273 -56 13 -135 17 -448 19 -209 1 -384 3 -389 3 -5 1 11 16 36
35 53 41 92 90 121 154 31 69 34 226 5 302 -40 104 -156 186 -348 243 -91 28
-196 53 -256 63 -20 3 -46 8 -58 10 -11 3 -46 9 -76 14 -30 5 -71 14 -90 20
-19 6 -42 13 -50 15 -53 12 -156 63 -193 96 -95 83 -106 231 -26 333 40 51
155 113 244 131 47 10 259 13 307 4 152 -27 254 -76 338 -163 19 -20 39 -36
43 -36 12 0 127 80 127 88 0 11 -72 86 -110 114 -58 43 -150 85 -235 107 -70
19 -115 24 -280 34 -22 2 -83 0 -135 -5z m1355 -1702 c103 -16 188 -77 229
-165 29 -65 29 -196 -1 -263 -37 -82 -109 -136 -210 -158 -41 -10 -231 -13
-565 -11 l-87 1 0 297 c0 163 1 299 3 302 6 9 572 6 631 -3z"/>
<path d="M243 3322 l-23 -3 0 -1328 0 -1327 343 3 c268 1 1591 7 2840 12 l127
1 0 70 0 70 -1312 -6 c-722 -3 -1436 -7 -1586 -8 l-272 -1 0 1258 c0 691 -3
1257 -7 1258 -25 3 -91 4 -110 1z"/>
<path d="M3645 1354 l1 -84 44 -46 c148 -151 442 -341 693 -445 l78 -32 -93
-44 c-51 -24 -109 -52 -128 -61 -182 -86 -433 -256 -544 -371 l-50 -51 -1 -83
-1 -83 115 116 c159 160 315 268 586 404 72 36 185 87 253 114 68 28 125 52
128 55 3 2 -46 25 -108 50 -391 156 -687 341 -885 552 l-88 93 0 -84z"/>
</g>
</svg>
