<?xml version="1.0" encoding="utf-8"?>
<svg viewBox="0 0 500 500" xmlns="http://www.w3.org/2000/svg" xmlns:bx="https://boxy-svg.com">
  <defs>
    <bx:grid x="1.038" y="0.149" width="166.415" height="170.153"/>
  </defs>
  <g>
    <path style="stroke: rgba(60, 190, 170, 0); fill: rgb(37, 187, 167);" d="M 35.75 28.642 L 139.598 27.869 L 132.474 117.713 L 87.639 151.452 L 43.215 116.86 L 35.75 28.642 Z"/>
    <path style="fill: rgb(253, 247, 247); stroke-width: 2px; stroke: rgba(74, 134, 212, 0);" d="M 120.888 49.915 C 137.461 49.915 62.896 50.345 62.896 50.345 L 63.547 67.733 L 119.252 66.921 L 115.208 111.594 L 87.698 134.617 L 58.528 110.434 L 54.937 92.028 L 69.348 93.339 C 69.015 91.696 70.899 106.359 70.96 106.661 L 87.268 117.967 L 104.715 105.396 L 106.387 79.438 L 52.189 79.723 L 48.91 36.877 L 123.253 36.616 L 120.888 49.915 Z"/>
  </g>
  <g>
    <path style="stroke: rgba(60, 190, 170, 0); fill: rgb(37, 187, 167);" d="M 203.128 27.631 L 306.976 26.858 L 299.852 116.702 L 255.017 150.441 L 210.593 115.849 L 203.128 27.631 Z"/>
    <path style="stroke: rgba(0, 0, 0, 0); fill: rgb(245, 245, 245);" d="M 219.835 38.954 L 291.812 38.594 C 303.166 53.693 247.516 74.079 246.803 72.423 C 246.09 70.767 289.921 72.433 289.921 72.433 L 283.71 111.485 L 255.553 129.385 L 224.254 111.55 L 223.456 94.807 L 255.329 113.609 L 273.033 101.479 L 273.229 85.545 L 221.199 83.959 L 220.59 68.696 L 264.709 54.757 L 220.662 54.871 L 219.835 38.954 Z"/>
  </g>
  <g>
    <rect x="354.144" y="25.77" width="123.237" height="118.237" style="fill: rgb(37, 187, 167);"/>
    <text style="fill: rgb(255, 255, 255); font-family: &quot;Open Sans&quot;; font-size: 69.7px; font-weight: 700; white-space: pre;" x="415.134" y="125.893">JS</text>
  </g>
  <g>
    <ellipse style="fill: rgb(37, 187, 167);" cx="90.674" cy="210.027" rx="55.482" ry="24.387"/>
    <path style="stroke: rgba(0, 0, 0, 0); fill: rgb(37, 187, 167);" d="M 43.077 230.621 C 67.679 245.51 109.684 244.538 137.986 232.177 C 146.368 228.517 145.642 258.673 138.427 265.645 C 115.775 287.537 62.792 287.901 41.671 264.528 C 35.564 257.768 31.616 223.685 43.077 230.621 Z"/>
    <path style="stroke: rgba(0, 0, 0, 0); fill: rgb(37, 187, 167);" d="M 43.881 273.924 C 70.357 293.493 112.901 292.433 137.927 275.434 C 145.284 270.437 144.751 305.357 137.735 312.137 C 115.708 333.425 64.187 333.779 43.649 311.05 C 37.71 304.477 33.405 266.181 43.881 273.924 Z"/>
  </g>
  <g transform="matrix(1, 0, 0, 1, 157.144104, -153.229584)" bx:origin="0.596 0.029">
    <g transform="matrix(0.413996, -0.91028, 0.91028, 0.413996, -205.899475, 463.103699)">
      <ellipse style="fill: rgba(255, 255, 255, 0); stroke-width: 4px; stroke: rgb(37, 187, 167);" cx="259.045" cy="391.677" rx="59.058" ry="20.582"/>
      <ellipse style="fill: rgba(255, 255, 255, 0); stroke-width: 3.986; stroke: rgb(37, 187, 167);" cx="255.825" cy="384.597" rx="57.75" ry="20.871" transform="matrix(0.432964, 0.901411, -0.820053, 0.602347, 462.93382, -73.23016)"/>
      <ellipse style="fill: rgba(255, 255, 255, 0); stroke-width: 4px; stroke: rgb(37, 187, 167);" cx="253.84" cy="380.233" rx="59.058" ry="20.582" transform="matrix(0.483348, -0.875428, 0.875428, 0.483348, -194.064767, 429.19636)" bx:origin="0.516 0.486"/>
    </g>
    <g transform="matrix(-0.60866, -0.863662, -0.920457, 0.54613, 775.500061, 394.336548)" style="">
      <circle style="fill: rgb(37, 187, 167);" transform="matrix(-0.117517, -0.185844, -0.198066, 0.130973, 428.698517, 460.348999)" cx="687.67578125" cy="465.5703125" r="61.75279482798639"/>
    </g>
  </g>
  <g>
    <circle style="fill: rgb(37, 187, 167);" cx="253.67" cy="249.094" r="68.906" bx:origin="0.499 0.472"/>
    <path style="stroke-width: 1.714; stroke: rgba(0, 0, 0, 0); fill: rgb(255, 252, 252);" d="M 227.605 311.041 C 227.055 310.838 230.128 295.981 229.981 296.233 C 229.834 296.485 227.708 294.915 227.033 293.914 C 226.358 292.913 220.542 289.397 221.75 288.801 C 221.815 288.964 218.021 286.059 217.343 285.349 L 203.368 280.231 C 201.863 279.691 212.795 277.873 214.676 279.111 C 214.676 279.111 220.986 281.1 221.352 281.356 C 221.717 281.613 227.472 287.039 227.653 287.21 C 227.837 287.383 232.249 290.576 232.591 289.941 C 233.928 287.461 237.55 278.477 240.845 278.144 C 244.14 277.811 236.725 275.148 236.725 275.148 L 225.973 270.559 C 225.802 271.286 218.983 264.392 217.496 263.328 C 216.009 262.264 213.767 253.503 213.319 252.079 C 212.871 250.655 213.484 252.953 212.91 247.43 C 212.336 241.907 219.283 231.279 220.023 232.938 C 216.031 234.409 224.012 210.2 228.786 208.441 L 236.694 220.125 C 238.602 220.594 234.094 222.327 234.977 221.288 C 237.138 216.647 270.839 218.58 270.539 220.52 C 270.239 222.46 269.256 220.479 269.256 220.392 C 269.256 220.306 276.987 207.749 276.987 207.749 C 282.863 209.459 286.307 232.138 283.843 231.421 C 284.141 230.772 291.659 238.02 292.596 244.513 C 292.085 240.976 293.782 249.437 291.7 256.61 C 289.618 263.783 281.853 268.743 281.853 268.743 L 268.204 278.24 C 278.218 275.696 290.354 309.828 287.318 310.599 C 287.492 311.449 273.744 314.958 270.595 316.026 C 263.225 318.527 250.658 319.747 251.076 318.189 C 250.124 320.946 225.847 315.9 227.605 311.041 Z"/>
  </g>
  <text style="fill: rgb(37, 187, 167); font-family: &quot;Open Sans&quot;; font-size: 13px; white-space: pre;" x="354.158" y="387.549">produced by SofyaPim</text>
</svg>