<?xml version="1.0" encoding="utf-8"?>
<svg viewBox="0 0 500 500" xmlns="http://www.w3.org/2000/svg" xmlns:bx="https://boxy-svg.com">
  <defs>
    <bx:grid x="-96.568" y="-5.038" width="90.331" height="103.088"/>
  </defs>
  <g transform="matrix(1.267084, 0, 0, 1.221264, -115.434013, -199.293289)">
    <path style="stroke-width: 16.957; fill: rgb(255, 245, 238);" d="M 289.868 195.116 L 289.782 195.116 L 289.782 195.116 C 194.264 195.116 116.589 271.925 116.589 366.373 C 116.589 403.836 128.802 438.558 149.569 466.752 L 127.979 530.373 L 194.567 509.33 C 221.96 527.269 254.636 537.63 289.868 537.63 C 385.387 537.63 463.061 460.8 463.061 366.373 C 463.061 271.946 385.387 195.116 289.868 195.116 Z"/>
    <path style="fill: rgb(86, 2, 110); stroke-width: 43.347; stroke-miterlimit: 7;" d="M 397.99 439.811 C 393.46 453.173 375.489 464.256 361.152 467.493 C 351.347 469.675 338.532 471.414 295.412 452.731 C 240.251 428.849 199.391 371.041 196.623 367.242 C 193.971 363.441 179.669 335.458 179.669 307.312 C 179.669 279.163 193.346 265.458 198.861 259.572 C 203.39 254.742 210.875 252.537 218.054 252.537 C 220.376 252.537 222.465 252.658 224.342 252.756 C 229.857 253.001 232.624 253.343 236.26 262.441 C 240.789 273.842 251.817 301.99 253.132 304.882 C 254.468 307.776 255.806 311.701 253.928 315.5 C 252.169 319.422 250.621 321.164 247.852 324.498 C 245.082 327.833 242.454 330.382 239.687 333.962 C 237.153 337.076 234.29 340.412 237.481 346.174 C 240.673 351.812 251.7 370.618 267.935 385.722 C 288.887 405.214 305.876 411.442 311.952 414.091 C 316.48 416.051 321.878 415.586 325.186 411.908 C 329.385 407.176 334.57 399.33 339.849 391.606 C 343.604 386.065 348.344 385.379 353.316 387.34 C 358.384 389.178 385.203 403.031 390.716 405.901 C 396.229 408.793 399.867 410.167 401.202 412.595 C 402.519 415.021 402.519 426.424 397.99 439.811 Z" transform="matrix(0.999286, -0.039191, 0.036408, 0.999286, -12.923595, 11.65478)"/>
  </g>
</svg>